<svg id="Layer_1" data-name="Layer 1" xmlns="http://www.w3.org/2000/svg" viewBox="0 0 337.71 376.83"><defs><style>.cls-1{fill:#f6ff00;}</style></defs><title>bike-logo</title><path class="cls-1" d="M434.7,188.9c-30.4-19.5-62.7.8-73.5,14l-17-7.8L316,158.9a42.89,42.89,0,0,0-2.3-7.1s-.1,1.3-.5,3.5l-2.3,8.7c-4.2,12-14.5,29.2-39.1,34.1a257.16,257.16,0,0,0-30.7,9.5l1.5-14.2c21.3,6.7,41.3-8.7,41.3-8.7s24.3-19.3,9-54S246.6,95,246.6,95s-42-2.3-47,36.3,34,59.6,34,59.6v7L228,213c-32.5,15.3-40.2,31.3-40.2,31.3,5.5-38.5-8.5-39-8.5-39s-1-61.5-36.5-51.5c-37.4,10.5-8.5,51.5-8.5,51.5l-12.5,16.5s-31,35.5,36,98.5,42,67.5,58,151.5c31.5-99.5-5.5-168-5.5-168S235,261.1,278,229.4l45.3,10.2-3,12-25.2,7.3,5.2,5.7s18.3,2.3,25,6.7,14.3,5.3,15-2.3-4-19-12-18.2,1.7-11.5,1.7-11.5l23.3.1s6.2,29.4,44.8,28.1S448.3,238,448.3,238,463.6,207.4,434.7,188.9ZM213,151.8a33.63,33.63,0,0,1,9-35c14.4-13.2,33.6-5.5,33.6-5.5a57.09,57.09,0,0,1,21.5,17.3,36.67,36.67,0,0,1,3.1,38C265.7,195.2,222.5,180.3,213,151.8Zm-58.1,54-17.3-2.7-3.3-10a80.53,80.53,0,0,0,38.2-16.8l2.6,14.5-7.1,8.6C159,197.7,154.9,205.8,154.9,205.8Zm36.3,66.6s-2.8,11.5-12.5,11.2-9.5-11.2-9.5-11.2c3.6,2.1,9.6-9,9.6-9s.8-6.8,6.9-10.2c8-1.6,8.2,5.9,8.2,5.9s-2.4.9-1.1,5.6A8.25,8.25,0,0,1,191.2,272.4Zm2.2-1.3c1.1-1.1.6-5,.6-5s3.9-.9,4.4,2.5S194.4,272,193.4,271.1ZM317.5,170.8l2.3,2.3,14.8,22.5-23.8,2.2A54.94,54.94,0,0,0,317.5,170.8Zm9.2,61.3-39.9-8.8a81.87,81.87,0,0,0,15.8-14l23.6-2.2a12.94,12.94,0,0,0,5.2,9.5Zm25.7,2.4-20.5-1,4.7-14.5a9.69,9.69,0,0,0,8-1.7l7.8,8.1A29.31,29.31,0,0,0,352.4,234.5Zm81.3,1.8c-5.9,8-17.1,19.2-33.9,19.7-34.9.7-36.2-26.6-34.3-35.5,2.5-11.7,24.2-35.2,54.8-24.3,9.6,3.4,14.5,9.2,16.8,15A26,26,0,0,1,433.7,236.3Z" transform="translate(-114.64 -94.97)"/></svg>